<svg version="1.1" id="Layer_1" xmlns="http://www.w3.org/2000/svg" xmlns:xlink="http://www.w3.org/1999/xlink" x="0px" y="0px" width="320px" height="80px" viewBox="0 0 343 103" xml:space="preserve">
    <title id="logoTitle">Logo Cristina Maser</title>
    <desc id="logoDesc">Una planta circular.</desc>
    <g>
        <g>
            <path class="st0" d="M75,30.8c0.1,0.9,0.2,1.5,0.7,2.3c0.5,0.8,1.1,0.9,2,1c0.3,0,0.4-0.3,0.3-0.4c-0.2-0.2-0.4-0.4-0.7-0.4
                  c-0.7-0.1-0.8-0.5-1-1.1c-0.1-0.5-0.2-1-0.3-1.6c-0.1-0.3-1-0.8-0.9-0.3L75,30.8z"></path>
        </g>
        <g>
            <path class="st0" d="M76.9,33.9c-0.6,0.5,0,1.2,0.5,1.7c0.6,0.5,1.5,0.8,2.2,0.1c0.2-0.2,0.2-0.6,0.1-0.6
                  c-0.3,0.2-0.7,0.3-1.1,0.3c-0.1,0,0,0.1,0.1,0c-0.1,0-0.1-0.1-0.2-0.1c-0.1-0.1-0.2-0.2-0.3-0.3c-0.2-0.3-0.2-1,0.1-1.3
                  c0.4-0.3-0.8,0-1,0.2L76.9,33.9z"></path>
        </g>
        <g>
            <path class="st0" d="M77.8,25.8c-1.4,1.3-0.7,3.8,0.7,4.8c0.3,0.2,1.2-0.2,1.1-0.2c-1.4-1-2-3.4-0.7-4.7
                  C79,25.7,78.1,25.5,77.8,25.8L77.8,25.8z"></path>
        </g>
        <g>
            <path class="st0" d="M78.5,30.9c-0.2,1.1,0.4,1.9,1.2,2.6c0.2,0.2,0.6,0.3,0.8,0.1c0.2-0.2,0.3-0.5,0-0.7c-0.6-0.5-1-1-0.9-1.8
                  C79.8,30.5,78.6,30.3,78.5,30.9L78.5,30.9z"></path>
        </g>
        <g>
            <path class="st0" d="M79.8,33.8c0.2,1.5,0.7,3.3,2.6,3.2c0.2,0,0.6-0.1,0.7-0.3c0.1-0.3-0.3-0.3-0.5-0.3c-1.3,0.1-1.5-1.8-1.6-2.7
                  C80.9,33.2,79.7,33.3,79.8,33.8L79.8,33.8z"></path>
        </g>
        <g>
            <path class="st0" d="M81.1,29.9c0.4,1.8-0.3,3.7,1.7,4.7c0.5,0.3,2.8-0.2,0.6-0.7c-1.6-0.4-0.9-2.9-1.2-4.2
                  C82.2,29.3,81,29.3,81.1,29.9L81.1,29.9z"></path>
        </g>
        <g>
            <path class="st0" d="M82.7,30.8c0.2-0.1,0.5-0.3,0.7-0.4c0,0-0.5-0.3-0.5-0.3c-0.1,0-0.4-0.3-0.6-0.2c-0.2,0.1-0.5,0.3-0.7,0.4
                  c0,0,0.5,0.3,0.5,0.3C82.2,30.6,82.6,30.8,82.7,30.8L82.7,30.8z"></path>
        </g>
        <g>
            <path class="st0" d="M82.8,31c0.7-0.2,1.2-0.6,1.9-0.8c0.2-0.1-0.4-0.5-0.8-0.4c-0.7,0.2-1.4,0.3-2,0.5
                  C81.7,30.4,82.5,31.1,82.8,31L82.8,31z"></path>
        </g>
        <g>
            <path class="st0" d="M78,25.9c0.5,0.1,0.9,0.4,1.5,0.4c0.5,0.1,1.1-0.3,1.5-0.4c0.3-0.1,0.7-0.6,0.3-0.8c-0.6-0.4-1.1-0.5-1.9-0.5
                  c0,0.3-0.1,0.6-0.1,0.9c1.4,0,2.5,0,3.7,0.5c1.1,0.4,1.9,0.7,3.3,0.6c0.7,0,1.6-0.9,0-0.8c-1.4,0.1-2.7-0.7-4-1.1
                  c-1.1-0.4-1.9-0.1-3-0.1c-0.7,0-0.9,0.9-0.1,0.9c0.3,0.1,0.7,0.2,1,0.3c0.1-0.3,0.2-0.5,0.3-0.8c-0.9,0.2-1.4-0.1-2.2-0.3
                  C77.9,24.6,77.2,25.7,78,25.9L78,25.9z"></path>
        </g>
        <g>
            <path class="st0" d="M85.1,28.1c0.5,2.1,2.9,2,4.5,0.8c0,0,0.1-1-0.5-0.4C88.6,28.9,88,29,87.4,29c-0.8,0-1.8-1.6-2-2.3
                  c-0.1-0.3-0.5,0.6-0.5,0.8L85.1,28.1z"></path>
        </g>
        <g>
            <path class="st0" d="M87.4,25.6c0,0.2-0.2,0.3-0.2,0.5c0,0.3,0.4,0.5,0.7,0.5c-0.1,0,0.2,0.1,0.2,0.1c0.2,0.1,0.4,0.3,0.5,0.4
                  c0.3,0.3,0.6,0.5,0.9,0.8c0.6,0.5,1.2-0.3,0.7-0.8c-0.7-0.6-1.5-1-2.6-1.6c0.2,0.2,0.5,0.3,0.7,0.5c0-0.1,0.5,0.1,0.4,0.1
                  c-0.7-0.3-1.2-1.7-1.3-0.6V25.6z"></path>
        </g>
        <g>
            <path class="st0" d="M84.2,30.8c1,1,2.3,2.7,4.2,1c0.5-0.5-0.5-1.1-0.9-0.7c-0.7,0.8-2.3-0.6-2.9-1.2
                  C84.2,29.5,83.6,30.3,84.2,30.8L84.2,30.8z"></path>
        </g>
        <g>
            <path class="st0" d="M84.6,32.7c0,0.7-0.2,1.5,0.3,2.2c0.5,0.7,1.2,1,2,1.1c0.1,0,0.6-0.2,0.3-0.2c-0.3,0-0.5-0.2-0.8-0.3
                  c-0.6-0.5-0.9-1.7-0.9-2.3c0-0.4-0.9-0.8-0.9-0.6L84.6,32.7z"></path>
        </g>
        <g>
            <path class="st0" d="M83.4,34.6c-0.3,1.2-1.2,2.3-0.3,3.4c0.7,0.8,1.4,0.9,2.3,0.8c0.7-0.1,0.3-0.4,0.1-0.3c0.3-0.1-0.1,0-0.6-0.1
                  c-0.3-0.1-0.5-0.3-0.7-0.5c-0.3-0.3-0.4-0.7-0.4-1.1c-0.1-0.8,0.5-1.6,0.7-2.3C84.5,34.5,83.4,34.4,83.4,34.6L83.4,34.6z"></path>
        </g>
        <g>
            <path class="st0" d="M86.2,36.1c-0.3,0.8-0.4,1-0.2,1.8c0.2,1,1.1,1.5,2,1.8c0.7,0.2,0.3-0.9-0.1-1c-0.5-0.2-0.9-0.3-0.9-0.9
                  c0-0.5,0.2-1.1,0.4-1.6c0.2-0.5-0.8-0.8-1-0.3L86.2,36.1z"></path>
        </g>
        <g>
            <path class="st0" d="M88.5,34.5c-0.6,1.3-0.3,3.8,1.2,4.3c0.6,0.2,1.3-0.7,0.6-0.9c-0.9-0.3-1.2-2.1-0.8-2.9
                  C89.9,34.3,88.8,33.9,88.5,34.5L88.5,34.5z"></path>
        </g>
        <g>
            <path class="st0" d="M87.8,32.2c0.2,1.1-0.1,2.1,0.9,2.8c0.6,0.4,1.1-0.5,0.5-0.9c-0.3-0.2-0.3-0.5-0.3-0.8c0-0.4,0-0.8-0.1-1.2
                  C88.7,31.3,87.6,31.4,87.8,32.2L87.8,32.2z"></path>
        </g>
        <g>
            <path class="st0" d="M84.5,38.7c-0.4,0.8-0.3,1.4,0,2.2c0.1,0.3,0.9,1.2,1.1,1.2c0.2,0.1-0.2-0.7-0.3-1c-0.1-0.6,0.1-1.7,0.4-2.3
                  C86,38.5,84.7,38.3,84.5,38.7L84.5,38.7z"></path>
        </g>
        <g>
            <path class="st0" d="M87.7,39.3c-0.2,0.9,0,1.7,0.4,2.5c0.1,0.2,0.4,0.5,0.6,0.6c0.2,0.1,0.5,0.4,0.4,0.1
                  c-0.4-0.7-0.1-2.7-0.5-3.3C88.5,39,87.8,38.9,87.7,39.3L87.7,39.3z"></path>
        </g>
        <g>
            <path class="st0" d="M85.2,42.5c-0.5,1-0.5,3.8,1.2,3.9c0.3,0,0.8-0.7,1-0.9c0.1-0.1-0.6,0.1-1,0c-1.2-0.5-0.7-2-0.3-2.7
                  c0.3-0.6-0.5-0.7-0.7-0.4L85.2,42.5z"></path>
        </g>
        <g>
            <path class="st0" d="M87.8,42.1c-0.4,1.5-0.3,3.5,1.3,4.2c0.7,0.3,1.9-0.1,0.3-0.6c-1-0.3-0.9-2.2-0.6-3.1
                  C89,42,88,41.5,87.8,42.1L87.8,42.1z"></path>
        </g>
        <g>
            <path class="st0" d="M90.3,38.5c-0.3,1.2-0.2,3,0.5,4.1c0.4,0.6,1.3,0.2,0.9-0.4c-0.5-0.9-0.4-2.6-0.1-3.5
                  C91.6,38,90.4,38.2,90.3,38.5L90.3,38.5z"></path>
        </g>
        <g>
            <path class="st0" d="M84.2,84.3c-6,3.9-4.4,8.6-3.2,14.7c0.6,3.5,1,2.6,0.9,1.8c-0.6-5.6-2.4-11.7,3.2-15.4c0.6-0.4-0.1-1.4-0.6-1
                  L84.2,84.3z"></path>
        </g>
        <g>
            <path class="st0" d="M83.4,69.9c-0.2,0.8-1,1.3-1.5,1.9c-0.5,0.5,0.5,0.8,0.8,0.5c0.8-0.5,1.3-1.1,1.9-1.8c-0.3-0.1-0.7-0.2-1-0.3
                  c-0.5,0.8-0.9,1.6-1.2,2.5c-0.2,0.5,0.8,0.4,1.1,0.2c0.7-0.8,1.2-1.5,1.7-2.5c-0.4,0-0.8-0.1-1.1-0.1c-0.3,0.9,0.1,2.1-0.6,2.7
                  c-1,0.8,0.9,0.5,1.1,0.1c0.3-0.5,0.5-1,0.7-1.4c-0.4,0-0.8-0.1-1.1-0.1c-0.7,4.2-2.9,9.5-1.4,13.8c0.2,0.5,1.4,0.3,1.2-0.2
                  c-1.5-4.2,0.7-9.4,1.4-13.6c0.1-0.6-0.9-0.5-1.1-0.1C84,72,83,72.6,82.8,73c0.4,0,1.4-0.1,1.8,0c0.2-0.9,0.3-1.8,0.6-2.7
                  c0.2-0.5-0.9-0.5-1.1-0.1c-0.4,0.8-0.9,1.6-1.5,2.3c0.4,0.1,0.7,0.1,1.1,0.2c0.3-0.8,0.7-1.5,1.1-2.3c0.3-0.6-0.7-0.6-1-0.3
                  c-0.5,0.6-1,1.2-1.7,1.6c0.3,0.2,0.6,0.3,0.8,0.5c0.7-0.8,1.4-1.3,1.7-2.3C84.8,69.4,83.6,69.4,83.4,69.9L83.4,69.9z"></path>
        </g>
        <g>
            <path class="st0" d="M82.1,72.3c-1.2,1-2.3,2-3.2,3.2c-0.4,0.5,0.7,0.7,1,0.5c1.1-0.9,2.3-1.7,3.4-2.7c-0.3-0.2-0.6-0.4-1-0.6
                  c-1.9,1.6-3.1,3.6-4,5.9c-1,2.5-0.4,5.4-2,7.7c-0.3,0.5,0.6,0.6,0.9,0.1c1.2-1.8,1.4-3.7,1.8-5.8c0.5-2.8,2.1-5.5,4.3-7.3
                  c0.5-0.4-0.6-0.9-1-0.6c-1.1,0.9-2.2,1.8-3.4,2.7c0.3,0.2,0.7,0.3,1,0.5c0.9-1.2,2-2.1,3.1-3.1C83.6,72.5,82.5,72,82.1,72.3
                  L82.1,72.3z"></path>
        </g>
        <g>
            <path class="st0" d="M88.2,59.3C88.2,59.3,88.2,59.3,88.2,59.3c-0.3-0.1-0.5-0.2-0.8-0.3c0.1,0.1-0.2,0.7-0.2,0.8
                  c-0.1,0.4-0.3,0.7-0.3,1.1c0,0.2,1.1,0.4,1.1,0.4c0.1-0.5,0.3-1,0.5-1.5c0-0.1,0.2-0.8,0.1-0.9c-0.1-0.2-0.7,0.1-0.9,0.1
                  c0,0-0.4-0.1-0.2,0C87.6,59.1,87.9,59.2,88.2,59.3L88.2,59.3z"></path>
        </g>
        <g>
            <path class="st0" d="M83.8,68.8c-2,3-4.3,5.7-7.2,8c-2.7,2.1-5.7,4.9-8.9,5.9c-0.7,0.2-0.5,1.1,0.2,0.9c3.4-1.1,5.8-3.6,8.6-5.6
                  c3.4-2.3,6-5.4,8.3-8.8C85.2,68.7,84.1,68.3,83.8,68.8L83.8,68.8z"></path>
        </g>
        <g>
            <path class="st0" d="M26.2,76.1c1.1,2.6,4.5,4,6.7,5.4c3.1,2,7.2,3.2,10.7,4c7.2,1.6,14,1.8,21-0.8c0.6-0.2-0.6-0.4-0.9-0.3
                  c-8,3-16.1,2-24.1-0.7c-3.5-1.2-10.7-4-12.3-7.8C27.2,75.7,26.1,75.8,26.2,76.1L26.2,76.1z"></path>
        </g>
        <g>
            <path class="st0" d="M19.2,34.1c-4.3,5.5-4.1,15.5-3.2,22c0.6,4,1.9,8.2,4,11.7c1.6,2.7,3.3,6.5,6.1,8.2c0.3,0.2,0.7-0.2,0.4-0.4
                  c-2.4-1.5-4.3-5.6-5.9-8c-2.2-3.4-3.2-7.7-3.9-11.6c-1.2-6-0.9-16.2,3.1-21.2c0.2-0.3-0.1-0.8-0.3-0.6L19.2,34.1z"></path>
        </g>
        <g>
            <path class="st0" d="M22.4,33.2c1.1,0,3.4-2,4-2.8c1.2-1.4,2.1-3.1,2.8-4.8c0-0.1-0.3-1.3-0.3-1.2c-0.5,0.6-1,2-1.3,2.7
                  c-0.6,1.3-1.4,2.3-2.2,3.4c-0.1,0.1,0.3,0.5,0.4,0.5c0.8-0.4,1.3-1.2,2-1.8c-0.1-0.2-0.3-0.3-0.4-0.5c-0.4,0.6-0.9,1.2-1.4,1.8
                  c-0.1,0.1,0.3,0.5,0.4,0.5c4-1.7,5.8-6.3,7.7-9.8c0.1-0.2-0.7,0.2-0.8,0.3c-1.9,3.5-3.3,7.4-7.3,9c0.1,0.2,0.3,0.3,0.4,0.5
                  c0.5-0.6,1-1.2,1.4-1.8c0.1-0.1-0.3-0.6-0.4-0.5c-0.7,0.6-1.2,1.4-2,1.8c0.1,0.2,0.3,0.3,0.4,0.5c0.7-1,1.4-1.8,2-2.9
                  c0.5-0.9,0.8-1.8,1.5-2.5c-0.1-0.2-0.3-0.3-0.4-0.5c-0.6,1.7-1.6,3.4-2.8,4.8c-0.6,0.7-1.7,2.3-2.8,2.4c-0.1,0,0.2,0.5,0.3,0.5
                  L22.4,33.2z"></path>
        </g>
        <g>
            <path class="st0" d="M34.5,17.6c0.4-1.2,1-2.3,1.2-3.6c0-0.2-0.5,0-0.6,0.2c-0.2,1.2-0.8,2.4-1.2,3.6C33.8,18,34.4,17.8,34.5,17.6
                  L34.5,17.6z"></path>
        </g>
        <g>
            <path class="st0" d="M27.5,29.4c1.7-1.5,2.7-3.6,3.6-5.7c0.1-0.3-0.5-0.4-0.6-0.2c-0.8,2-1.8,4.1-3.5,5.5
                  C26.7,29.4,27.3,29.6,27.5,29.4L27.5,29.4z"></path>
        </g>
        <g>
            <path class="st0" d="M21.5,33.6c-0.4,1.3-1.2,2.4-1.7,3.7c-0.6,1.4-0.7,2.9-1,4.4c0,0.2,0.4,0.5,0.4,0.4c0.3-1.7,0.5-3.3,1.2-4.9
                  c0.5-1.1,1.1-2.1,1.5-3.3C21.9,33.9,21.5,33.5,21.5,33.6L21.5,33.6z"></path>
        </g>
        <g>
            <path class="st0" d="M29.1,24.6c6-5.4,14.1-9.3,22.3-9.4c0.1,0-0.3-0.3-0.5-0.3c-8.3,0.1-16.3,3.9-22.4,9.4
                  C28.5,24.4,29,24.7,29.1,24.6L29.1,24.6z"></path>
        </g>
        <g>
            <path class="st0" d="M58.5,16c2.7,0.1,5.2,1.2,7.8,1.9c0.4,0.1,0.3-0.4,0-0.5c-2.6-0.7-5.1-1.9-7.9-1.9C57.9,15.4,58.2,16,58.5,16
                  L58.5,16z"></path>
        </g>
        <g>
            <path class="st0" d="M51,12.6C51,12.6,51,12.7,51,12.6c-0.1,0.2,0.2,0.7,0.4,0.5c0.2-0.1,0.3-0.3,0.4-0.4
                  c-0.1-0.2-0.3-0.3-0.4-0.5c-0.1,0.2-0.2,0.4-0.4,0.6c-0.1,0.2,0.2,0.6,0.4,0.5c0.3-0.3,0.4-0.4,0.6-0.7c0.1-0.2-0.2-0.6-0.4-0.5
                  C51.5,12.3,51.3,12.5,51,12.6c-0.2,0.2,0.2,0.7,0.4,0.5c1.7-1.3,3.4-2.7,5-4.2c1.6-1.5,3.2-3.1,5.4-3.6c0.3-0.1,0-0.6-0.3-0.5
                  c-1.9,0.4-3.3,1.6-4.7,2.8C54.9,9.4,53.1,11.1,51,12.6c0.2,0.2,0.3,0.4,0.4,0.5c0.2-0.2,0.4-0.4,0.6-0.5c-0.1-0.2-0.3-0.3-0.4-0.5
                  c-0.2,0.2-0.4,0.4-0.5,0.6c0.1,0.2,0.3,0.3,0.4,0.5c0.1-0.2,0.2-0.4,0.4-0.6c0.1-0.2-0.2-0.6-0.4-0.5C51.4,12.4,51.2,12.5,51,12.6
                  c0.2,0.1,0.3,0.3,0.4,0.5c0,0,0,0,0,0C51.6,12.8,51.2,12.4,51,12.6L51,12.6z"></path>
        </g>
        <g>
            <path class="st0" d="M53.8,14.7c0.6,1.7,1.9,4.8,4.2,3.6c-0.2-0.1,0.2-0.7,0-0.8c-0.7,0.9-2.6,1.1-2.6-0.2
                  c-0.2-0.1-0.3-0.2-0.5-0.3c0.4,0.9,1.1,1.5,2.1,1.7c0.2,0-0.2-0.4-0.4-0.4c-0.7-0.1-1-0.5-1.2-1c0-0.1-0.5-0.5-0.5-0.3
                  c0.1,1.6,2.1,2.6,3.2,1.3c0.1-0.1-0.3-0.5-0.5-0.4c-1.9,1-2.8-1.6-3.3-3C54.3,14.8,53.7,14.5,53.8,14.7L53.8,14.7z"></path>
        </g>
        <g>
            <path class="st0" d="M57.5,18.6c0.1,1.3,0.8,2.7,2.3,2.3c0.3-0.1,0.6-0.3,0.6-0.5c0.1-0.3-0.2-0.3-0.4-0.3
                  c-1.1,0.3-1.4-1.1-1.4-1.9C58.6,17.6,57.5,18.2,57.5,18.6L57.5,18.6z"></path>
        </g>
        <g>
            <path class="st0" d="M55,18.8c-0.3,1.8,0.3,4.5,2.6,4.1c0.7-0.1,1.3-1.3,0.6-1.2c-1.4,0.3-2.2-1.9-2-2.8
                  C56.3,18.2,55.1,18.2,55,18.8L55,18.8z"></path>
        </g>
        <g>
            <path class="st0" d="M57.6,22.6c0.3,0.5,0.8,0.8,1.4,1c0.2,0.1,0.6,0,0.8-0.1c0.1,0,0.4-0.2,0.2-0.2c-0.5-0.1-1-0.4-1.2-0.9
                  C58.5,21.8,57.6,22.5,57.6,22.6L57.6,22.6z"></path>
        </g>
        <g>
            <path class="st0" d="M57,15c1,1.7,4.7,0.7,5.1-1.1c0.1-0.6-1.1-0.8-1.2-0.2c-0.1,0.7-2.4,1.7-2.8,0.9C57.7,14.1,56.6,14.3,57,15
                  L57,15z"></path>
        </g>
        <g>
            <path class="st0" d="M61.5,14c1.7,0.1,4.1-1,3.7-3.3c0-0.2-1.1-0.2-1.1,0.1c0.3,1.5-1,2.4-2.3,2.4c-0.3,0-1.3,0.5-0.7,0.5L61.5,14
                  z"></path>
        </g>
        <g>
            <path class="st0" d="M62,10.6c1.4,0.4,3.1,0.6,3.3-1.2c0.1-0.6-0.7-1.4-0.8-0.6c-0.1,1.1-1.7,1.1-2.4,0.8
                  c-0.3-0.1-0.6,0.1-0.6,0.4C61.5,10.3,61.7,10.5,62,10.6L62,10.6z"></path>
        </g>
        <g>
            <path class="st0" d="M56.4,13c0.3-0.2,1.6-0.5,1.5-1c-0.1-0.3-0.4-0.5-0.7-0.5c-0.5,0-0.9,0.4-1.2,0.7C55.7,12.7,56,13.3,56.4,13
                  c1.7-0.9,4.3-0.7,5.7-2.1c0.4-0.4-0.5-1.2-1-0.7c-1.3,1.3-3.4,1.2-5,2c0.3,0.3,0.4,0.3,0.7,0.6c0.1-0.1,0.6-0.2,0.7-0.2
                  c-0.2-0.2-0.5-0.3-0.7-0.5c0.1-0.3,0-0.4-0.1-0.2c-0.2,0.1-0.4,0.2-0.5,0.3c-0.6,0.3-0.2,0.9,0.3,0.6L56.4,13z"></path>
        </g>
        <g>
            <path class="st0" d="M66.3,17.4c-0.6,1.1-0.1,2.9,0.6,3.8c0.3,0.4,1.2-0.1,0.9-0.5c-0.6-0.8-1.1-1.8-0.5-2.6
                  c0.3-0.3-0.4-0.5-0.4-0.5L66.3,17.4z"></path>
        </g>
        <g>
            <path class="st0" d="M69.3,22.7c0.4,1.6,0.8,5.1,3.3,3.9c0.6-0.3,0.1-0.9-0.5-0.7c-1.4,0.6-1.7-2.6-1.8-3.4
                  C70.2,21.9,69.2,21.9,69.3,22.7L69.3,22.7z"></path>
        </g>
        <g>
            <path class="st0" d="M69,19.3c0.3,1.7,0.2,3.7,2.3,3.8c0.3,0,0.6-0.1,0.8-0.3c0.2-0.2-0.1-0.3-0.3-0.3c-1.7-0.1-1.5-2.3-1.7-3.5
                  C70.1,18.7,68.9,18.9,69,19.3L69,19.3z"></path>
        </g>
        <g>
            <path class="st0" d="M68.7,17.8c0,0.4,0.5,1.1,0.6,1.4c0,0.1,0.6-0.8,0.6-1c0-0.3,0-0.8,0-1.1c-0.3,0.2-0.6,0.6-0.9,0.8
                  c0.3,1.2,1.3,1.4,2.4,1.4c0.2,0,0.9-0.1,1.1-0.2c0,0,0.9-0.4,0.8-0.4c-1.1,0.1-3.1-0.4-3.4-1.6c0,0-0.9,0.6-0.9,0.8
                  c0,0.3-0.1,0.6-0.1,0.9c0.3-0.2,0.7-0.5,1-0.7c-0.2-0.3-0.2-0.7-0.2-1.1c0,0-0.5,0.3-0.5,0.3C69.1,17.5,68.7,17.7,68.7,17.8
                  L68.7,17.8z"></path>
        </g>
        <g>
            <path class="st0" d="M72.8,16.7c0.1-0.4,0.2-0.6,0.5-0.9c-0.2-0.3-0.5-0.6-0.7-0.9c-0.3,1,0.1,1.9,0.9,2.1
                  c1.5,0.4,3.9-1.1,4.5-2.5c0.2-0.3-0.6-0.7-0.7-0.6c-0.5,0.9-1.3,1.5-2.2,1.9c-0.4,0.2-0.9,0.2-1.4,0.2c-0.4,0-0.6,0.1-0.5-0.3
                  c0.1-0.2-0.6-1.1-0.7-0.9c-0.3,0.3-0.7,0.9-0.7,1.3C71.7,16.4,72.7,16.8,72.8,16.7L72.8,16.7z"></path>
        </g>
        <g>
            <path class="st0" d="M72.5,19.2c0,0.2-0.1,0-0.2,0.1c-0.3,0.4,0.6,0.9,0.9,0.7c0.2-0.1,0.3-0.2,0.5-0.3c0.6-0.3-0.3-0.9-0.7-0.8
                  c-0.2,0-0.6,0-0.8,0.1c0.2,0.3,0.7,0.7,0.9,0.9c0.6-0.3,1.1,0.1,1.8,0c0.6-0.1,0.9,0.1,1.4-0.3c0.5-0.3-0.2-1.1-0.6-0.8
                  c-0.5,0.4-1.1,0.2-1.7,0.1c-0.6-0.1-1.1-0.1-1.6,0.2c-0.6,0.3,0.3,1,0.7,0.8c0.2-0.1,0.4-0.1,0.6-0.2c-0.2-0.3-0.5-0.5-0.7-0.8
                  C72.8,19,72.7,19.1,72.5,19.2c0.3,0.2,0.6,0.5,0.9,0.7c0.1-0.2,0.2-0.4,0.2-0.6c0-0.5-0.9-0.6-1,0L72.5,19.2z"></path>
        </g>
        <g>
            <path class="st0" d="M72.5,22.2c-1.2,0.6,0,2,1.2,2.1c0.7,0,1.1-0.3,0.1-0.7c-0.2-0.1-0.4-0.2-0.5-0.3c-0.2-0.2-0.2-0.3-0.1-0.4
                  c0.2-0.2,0-1-0.3-1.2c-0.2-0.2-0.3,0.2-0.5,0.4L72.5,22.2z"></path>
        </g>
        <g>
            <path class="st0" d="M72.6,19.5c-0.4,0.8,0.4,1.6,1,1.9c0.6,0.3,1.5,0.5,1.6,1.3c0.1,0.7-0.3,1.6-0.5,2.2c-0.1,0.4,0.3,1.4,0.4,1
                  c0.2-1.2,1.4-2.5,0.7-3.7c-0.3-0.5-0.7-0.8-1.2-1.1c-0.5-0.2-1.4-0.4-1.1-1.1C73.7,19.9,72.8,19.1,72.6,19.5L72.6,19.5z"></path>
        </g>
        <g>
            <path class="st0" d="M76.3,86.2c-1.7,2.5-4.5,4.5-6.8,6.4c-0.1,0.1,1.1,0.1,1.3-0.1c2.3-1.9,4.7-3,6.4-5.5
                  C77.4,86.8,76.4,86.1,76.3,86.2L76.3,86.2z"></path>
        </g>
        <g>
            <path class="st0" d="M9.9,74.2c-3.7,1.4-4,4.6-3.3,8.3c0,0.3,0.5,0,0.5-0.3c-0.6-3.1-0.1-6.4,3.2-7.6C11.1,74.2,10.3,74,9.9,74.2
                  L9.9,74.2z"></path>
        </g>
        <g>
            <path class="st0" d="M8.1,74.1c-0.4,0.7-0.7,1.3-1.2,1.9c-0.4,0.5,0.4,1,0.8,0.7c0.6-0.4,1.3-0.8,1.9-1.2
                  c-0.3-0.2-0.6-0.4-0.9-0.6c-1.2,2.8-3,5.4-1.4,8.3c0.3,0.6,1.4,0.1,1-0.6C7,80.1,9,77.5,9.9,75.2c0.2-0.5-0.6-0.8-0.9-0.6
                  c-0.6,0.4-1.3,0.8-1.9,1.2C7.4,76,7.7,76.3,8,76.5c0.5-0.6,0.8-1.3,1.2-1.9C9.6,73.9,8.5,73.5,8.1,74.1L8.1,74.1z"></path>
        </g>
        <g>
            <path class="st0" d="M24.8,53.8c-0.2,1-0.2,1.9-0.2,2.9c0,0.2,0.6,1.2,0.8,0.8c0.3-0.9,0.8-1.7,1.2-2.6c0.1-0.3-0.5-1.3-0.7-0.9
                  c-0.4,0.6-0.7,1.2-1,1.9c0.3,0.3,0.5,0.6,0.8,0.8c0.1-0.6,0.2-1.2,0.5-1.8c-0.2-0.3-0.5-0.6-0.7-0.9c-0.4,1.4-0.7,2.7-1,4.2
                  c0.3,0.2,0.5,0.5,0.8,0.7c0.1-1,0.2-1.9,0.5-2.9c-0.3-0.2-0.5-0.5-0.8-0.7c-0.5,2-0.7,4-1,6c0.3,0.2,0.5,0.5,0.8,0.7
                  c0-1.9-0.1-3.7,0.7-5.4c-0.2-0.2-0.5-0.5-0.7-0.7c0.1,3.7-1,7.3-0.5,11c0.1,0.3,0.9,1.2,0.8,0.5c-0.6-3.7,0.6-7.3,0.5-11
                  c0-0.2-0.6-1.1-0.7-0.7c-0.8,1.8-0.8,3.6-0.7,5.6c0,0.3,0.7,1.3,0.8,0.7c0.2-2,0.5-4,1-6c0.1-0.3-0.7-1.2-0.8-0.7
                  c-0.2,1-0.4,1.9-0.5,2.9c0,0.3,0.7,1.3,0.8,0.7c0.2-1.4,0.5-2.7,0.9-4c0.1-0.4-0.6-1.3-0.7-0.9c-0.2,0.7-0.4,1.3-0.5,2
                  c0,0.2,0.6,1.2,0.8,0.8c0.3-0.7,0.6-1.3,1-1.9c-0.2-0.3-0.5-0.6-0.7-0.9c-0.4,0.9-0.9,1.7-1.2,2.6c0.3,0.3,0.5,0.6,0.8,0.8
                  c0-1,0.1-1.9,0.2-2.9C25.6,54.2,24.9,53.3,24.8,53.8L24.8,53.8z"></path>
        </g>
        <g>
            <path class="st0" d="M26.5,53.4c-0.3,0.5-0.5,0.9-0.7,1.4c0.4,0,0.8,0,1.2,0c0.1-0.5,0.2-1,0.2-1.4c-0.4,0-0.8,0.1-1.2,0.1
                  c0.2,3-0.2,5.9-0.2,8.9c0,0.3,1.2,0.3,1.2-0.1c0-3,0.4-5.9,0.2-8.9c0-0.3-1.2-0.3-1.2,0.1c0,0.5-0.2,1-0.2,1.4
                  c0,0.3,1.1,0.2,1.2,0c0.2-0.5,0.4-1,0.7-1.4C27.9,53.2,26.7,53.1,26.5,53.4L26.5,53.4z"></path>
        </g>
        <g>
            <path class="st0" d="M88.5,53.6c-0.2,0.2-0.5,0.3-0.7,0.5c0.3,0.3,0.6,0.5,0.9,0.8c0.5-0.5,1-1.1,1.4-1.7
                  c-0.3-0.3-0.6-0.5-0.9-0.8c-0.9,1.8-1.7,3.6-1.5,5.6c0,0.4,1,0.9,1,0.6c-0.1-0.8,0.5-1.5,0.6-2.2c0.3-1.1,0.3-2.2,0.8-3.2
                  c0.2-0.3-0.7-1-0.9-0.8c-0.4,0.6-0.9,1.1-1.4,1.7c-0.2,0.2,0.6,1,0.9,0.8c0.2-0.2,0.5-0.3,0.7-0.5C89.7,54.2,88.9,53.3,88.5,53.6
                  L88.5,53.6z"></path>
        </g>
        <g>
            <g>
                <g>
                    <g>
                        <path class="st0" d="M23.5,72.5c-4.9-1.2-10.7-3.2-15.7-1.5c-2.2,0.8-3.4,5.1-2.9,7c0.8,3.4,2.2,7.8,5.1,10
                              c0.2,0.1,0.6,0,0.6-0.3C10.5,86,9.3,84.2,9,82.4c-0.6-3.4-0.6-7,3.4-8.5c0.5-0.2,0-0.4-0.3-0.3c-2.8,1.1-4.3,2.7-4.1,5.8
                              c0.1,2.5,0.5,4.8,1.4,7.1c0.7,1.8,0.6,0.8-0.2-0.1c-1-1.2-1.8-3-2.5-4.4c-0.9-1.8-1.5-4.3-1.1-6.3c0.9-4.4,5.1-5.3,8.8-4.7
                              c2.9,0.5,5.7,1.2,8.6,1.8C23.3,72.9,23.9,72.6,23.5,72.5L23.5,72.5z"></path>
                    </g>
                    <g>
                        <path class="st0" d="M6.3,76.5c1.5-4.7,10.2-1.1,13.7-0.3c3,0.7,5.8,1.9,8.8,2.6c0.3,0.1,0.8-0.4,0.4-0.4
                              c-1.9-0.4-3.6-1-5.4-1.7c-3.4-1.3-7.3-1.2-10.6-2.8c-2.6-1.3-6.6-0.3-7.6,2.7C5.5,76.8,6.2,76.7,6.3,76.5L6.3,76.5z"></path>
                    </g>
                    <g>
                        <path class="st0" d="M7.4,74.5c-1,1.6-0.6,3.8-0.3,5.5c0,0.1,0.5,0,0.5-0.1c-0.3-1.7-0.7-3.9,0.2-5.4
                              C7.9,74.3,7.4,74.4,7.4,74.5L7.4,74.5z"></path>
                    </g>
                    <g>
                        <path class="st0" d="M27.5,52.3C26.6,60.1,27.1,67.4,29,75c0.7,2.9-1.8-0.4-2.5-1.1c-1.2-1.3-1.6-2-1.8-3.7
                              c-0.4-3.3-0.8-6.7-0.7-10c0.1-4.6,0.5-7.5,3.3-11.2c2.3-1,4.2-0.7,6,0.8c1.3,1,1.7,3.6,1.9,5.1c0.2,1.3-0.1,3-0.4,4.3
                              c0.2-0.8,0.6-0.2,0.1-1.7c-1.3-4.3-6.9-7.6-10.2-3.4c-0.2,0.2,0.5,0.1,0.6,0c3.1-4.1,7.3-0.1,8.5,2.6c0.4,0.9,0.6,1.8,0.8,2.7
                              c0,0.2,0.6,0,0.7-0.1c1.4-4.4,0.3-10.5-5-11.4c-3.5-0.6-4.6,2.1-6.1,4.9c-2.2,4-1,10.6-0.6,14.9c0.4,3.9,1.4,7.9,5.6,9.7
                              c0.1,0.1,0.6,0,0.6-0.2c0.4-1.1-0.3-2.6-0.6-3.7c-0.7-2.5-1.2-4.8-1.4-7.4c-0.3-4.7-0.3-9.3,0.2-13.9
                              C28.2,52,27.5,52.1,27.5,52.3L27.5,52.3z"></path>
                    </g>
                    <g>
                        <path class="st0" d="M27.4,50.7c1.4-0.6,2.2-0.4,3.5,0.2c0.8,0.4,1.8,0.7,2.4,1.4c0.8,0.9,0.9,2.8,1.1,4
                              c0.1,0.3,0.8,0.1,0.7-0.2c-0.4-1.8-0.5-4-2.4-4.9c-1-0.5-2.2-1.3-3.3-1.4c-0.9-0.1-1.6,0.2-2.4,0.5
                              C26.6,50.5,27,50.8,27.4,50.7L27.4,50.7z"></path>
                    </g>
                    <g>
                        <path class="st0" d="M25,9.4c4.7,2.3-3.2,12.9-4.7,15.4c-2,3.3-2.6,6.1-0.9,9.6c0.1,0.2,0.3,0.1,0.5,0.1
                              c6.7-3,9.5-9.5,10.4-16.4c0.3-2.5,1.2-7.5-1.8-8.9c-1.2-0.6-2.3-1-3.5-0.1c-0.3,0.3,0.4,0.3,0.6,0.1c2.6,0,4,1.2,4.3,3.6
                              c0.4,1.5,0,3.7-0.2,5.3c-0.4,3.8-1.3,6.7-3.2,10.1c-1.5,2.5-3.7,4.3-6.2,5.7c-0.7,0.4-1.2-3.8-1-4.8
                              c0.7-3.4,12.3-17.3,6.4-20.1C25.3,8.9,24.7,9.2,25,9.4z"></path>
                    </g>
                    <g>
                        <path class="st0" d="M35.1,17.4c0.7-3.2,2.1-6.1,3.7-8.9c0.2-0.3-0.4-0.2-0.5-0.1c-4,2.6-6.8,6.5-8.8,10.8
                              c-0.1,0.3,0.6,0.2,0.6,0c1.9-4.2,4.7-8.1,8.6-10.7c-0.2,0-0.4-0.1-0.5-0.1c-1.7,2.8-3.1,5.7-3.8,9
                              C34.4,17.8,35.1,17.6,35.1,17.4L35.1,17.4z"></path>
                    </g>
                    <g>
                        <path class="st0" d="M22.5,33.5c5.3-2.8,10.3-6.9,12.1-12.9c0-0.1-0.6,0-0.7,0.1c-1.8,5.9-6.7,9.9-12,12.7
                              C21.6,33.6,22.3,33.5,22.5,33.5L22.5,33.5z"></path>
                    </g>
                    <g>
                        <path class="st0" d="M51,13c0.7-1.3,3.1-2.2,4.4-3.2c1-0.9,2-1.8,3-2.6c0.6-0.5,1.2-0.9,1.8-1.2c0.8-0.5,2.2-0.7,2.9-1.2
                              c-1.5,1.1-2.4,2.4-3.5,3.8c-1.4,1.7-4.7,5.2-6.7,5.4c-0.3,0-0.6,0.4-0.1,0.3c2.8-0.2,4.2-2.8,6.2-4.5c1-0.8,1.8-1.9,2.6-2.9
                              c0.8-1,1.8-1.6,2.6-2.5c0-0.1,0-0.1,0-0.2c-1.7-0.7-5,1.9-6.2,2.8c-2,1.6-3.5,3.5-6,4.4c-0.7,0.2-1.2,1.1-1.6,1.7
                              C50.3,13.2,50.9,13.2,51,13L51,13z"></path>
                    </g>
                    <g>
                        <path class="st0" d="M50.5,14.6c1.7,1.3,1.7,4,2.5,5.9c0.8,2,2.6,3,4.2,4.3c0.2,0.1,0.6,0.1,0.7-0.2c0.1-0.3-0.2-0.6-0.4-0.8
                              c-0.8-1.1-1.4-2.2-1.8-3.5c-0.6-1.9-0.5-3.8-1.5-5.6c-0.1-0.2-0.8,0-0.7,0.2c0.9,1.6,1,3.3,1.3,5c0.2,0.9,0.6,1.9,1,2.7
                              c0.2,0.4,1.5,1.7,1.4,2.1c0.2-0.1,0.4-0.1,0.7-0.2c-1.8-1.4-3.4-2.5-4.3-4.7c-0.8-1.9-0.6-4.2-2.3-5.5
                              C51,14.2,50.3,14.5,50.5,14.6L50.5,14.6z"></path>
                    </g>
                    <g>
                        <path class="st0" d="M54.2,16.9c0.4,1.6,1.7,3.1,3.4,2.2c1.4-0.7,1.3-3.3,0.1-4.1c-0.2,0.1-0.4,0.2-0.6,0.3
                              c1.2,0.5,2.4,0.7,3.6,0.2c0.8-0.3,1.8-0.6,1.4-1.6c-0.9-2.3-4-1.8-5.7-0.9C56,13.1,56.4,13,56.8,13c1.3-0.2,2.7-0.9,3.9-0.1
                              c0.4,0.3,0.7,0.8,0.9,1.3c-0.4,0.9-1.1,1.3-2.4,1.1c-0.5,0-1-0.2-1.5-0.4c-0.1-0.1-0.8,0.2-0.6,0.3c0.9,0.6,0.9,1.8,0.8,2.7
                              c-0.2,1-1.2,1.2-2,0.6c-0.6-0.4-0.8-1.2-0.9-1.9C54.9,16.5,54.2,16.7,54.2,16.9L54.2,16.9z"></path>
                    </g>
                    <g>
                        <path class="st0" d="M59,9.7c0.6-0.2,2.1-0.7,2.4,0c0.2,0.4-0.1,1.1-0.3,1.4c-0.3,0.5-1.2,0.5-1.7,0.9
                              c-0.3,0.2,0.6,0.5,0.7,0.4c0.6-0.5,1.3-0.8,1.7-1.5c0.2-0.5,0.5-1.3,0-1.7C61.6,8.9,60.8,9,60.4,9c-0.6,0.1-0.9,0.2-1.4,0.4
                              C58.6,9.6,58.7,9.8,59,9.7L59,9.7z"></path>
                    </g>
                    <g>
                        <path class="st0" d="M57.1,19.1c0.1,1.7,2.5,2.5,3.7,1.4c1.6-1.6-1-3.7-2.4-4.3c-0.3-0.1-0.6,0.3-0.2,0.5
                              c1.1,0.5,2,1.2,2.3,2.4c0.3,1-0.7,1.8-1.6,1.3c-0.6-0.3-1.1-0.8-1.1-1.5C57.7,18.6,57,18.8,57.1,19.1L57.1,19.1z"></path>
                    </g>
                    <g>
                        <path class="st0" d="M61.8,10.9c0.8-0.4,2.6-0.8,3,0.4c0.5,1.5-1.8,2.4-2.8,2.6c-0.3,0-0.6,0.4-0.1,0.4
                              c1.4-0.2,4.1-1.3,3.6-3.1c-0.4-1.5-3.1-0.9-4-0.4C61.1,10.8,61.5,11,61.8,10.9L61.8,10.9z"></path>
                    </g>
                    <g>
                        <path class="st0" d="M60.6,9.1C61.4,8.3,62.9,7.4,64,8c0.8,0.4,1.3,2,0.6,2.7c-0.1,0.1,0.5,0.1,0.6-0.1c1-1.1-0.1-3-1.4-3.1
                              c-1.4-0.2-3,0.7-3.9,1.7C59.8,9.3,60.5,9.2,60.6,9.1L60.6,9.1z"></path>
                    </g>
                    <g>
                        <path class="st0" d="M57.9,20.4c0.4,0.4,0.6,1,0.3,1.5c-0.3,0.6-1.1,0.8-1.7,0.6c-0.2-0.1-0.8,0.2-0.6,0.3
                              c0.9,0.3,1.8,0.1,2.5-0.5c0.8-0.6,0.8-1.6,0.2-2.3C58.4,20,57.7,20.2,57.9,20.4L57.9,20.4z"></path>
                    </g>
                    <g>
                        <path class="st0" d="M60.1,20.6c0.8,0.4,0.7,1.7,0.4,2.4c-0.4,0.8-2.1,0.1-2.4-0.5c-0.1-0.3-0.8,0-0.7,0.2
                              c0.5,1.1,2.4,1.3,3.4,0.7c0.9-0.6,0.8-2.7-0.2-3.1C60.4,20.1,59.8,20.5,60.1,20.6L60.1,20.6z"></path>
                    </g>
                    <g>
                        <path class="st0" d="M77.1,22.3c0.1,0,2.2,0.1,2.9,0.1c1,0,2.1-0.2,3.2-0.3c1.2-0.1,2.4-0.1,3.7,0c1.3,0.1,1.7,0.1,0.8,0.3
                              c-1.7,0.4-3.3,1-5,1.1c-1.3,0.1-3.4,1.4-4.4,0.4c-0.2-0.2-0.8,0.1-0.5,0.4c1.6,1.5,2.8-0.1,4.9-0.3c1.1-0.1,2.1-0.3,3.2-0.5
                              c1-0.3,2.2-0.3,3.2-0.7c0.1-0.1,0.4-0.2,0.2-0.4c-1.2-1.4-4.3-1-5.9-0.8c-1.5,0.2-3,0.4-4.6,0.1c-0.8-0.2-1.4-0.2-2.1,0.2
                              C76.1,22,76.7,22.4,77.1,22.3L77.1,22.3z"></path>
                    </g>
                    <g>
                        <path class="st0" d="M77.7,24.9c-0.6,1.3-1.2,2.6-1.8,3.9c-0.6,1.3-1.2,2.4-1.5,3.8c-0.1,0.6,0.3,2.4-0.1,2.8
                              c0.2,0,0.4-0.1,0.7-0.1c-0.8-2.3-1.4-4-0.8-6.5c0.3-1.1,0.9-2.2,1.2-3.3c0.2-0.7-0.2-1.2,0.1-1.9c0.1-0.2-0.6-0.1-0.7,0.1
                              c-0.3,0.6,0,1.2-0.1,1.9c-0.3,1.3-1,2.6-1.4,3.9c-0.6,2.2,0.2,4,0.9,5.9c0.1,0.2,0.6,0,0.7-0.1c0.3-0.4,0-1.2,0-1.7
                              c-0.1-1.6,0.6-3.1,1.3-4.5c0.8-1.4,1.4-3,2.1-4.4C78.4,24.6,77.8,24.7,77.7,24.9L77.7,24.9z"></path>
                    </g>
                    <g>
                        <path class="st0" d="M77.6,26.9c-0.4,1.1-0.5,4.6,1.6,4c1.3-0.4,2.5-1.9,2-3.3c-0.2,0.1-0.5,0.1-0.7,0.2
                              c0.5,0.9,0.8,1.9,1.9,2.2c1,0.2,1.9,0.2,2.7-0.5c0.9-0.8,0.5-2.1-0.1-2.9c-0.8-1-2.2-1.4-3.3-1.6c-0.2,0-0.8,0.3-0.4,0.4
                              c1.4,0.2,3,0.8,3.6,2.2c0.6,1.5-0.9,2.4-2.2,1.9c-0.7-0.3-1-1.3-1.4-1.9c-0.1-0.2-0.8,0-0.7,0.2c0.3,0.9-0.2,1.7-0.8,2.4
                              c-1.1,1.1-1.5-0.6-1.7-1.2c-0.2-0.7,0-1.5,0.3-2.1C78.3,26.6,77.6,26.7,77.6,26.9L77.6,26.9z"></path>
                    </g>
                    <g>
                        <path class="st0" d="M83.8,23.8c1,0.1,1.7,0.1,2.6,0.6c0.6,0.3,1.2,0.7,0.7,1.4c-0.6,0.8-1.6,0.6-2.4,0.6
                              c-0.3,0-0.7,0.4-0.3,0.4c1,0,1.8,0.1,2.7-0.4c0.4-0.3,1.2-1,0.8-1.6c-0.9-1.2-2.5-1.3-3.8-1.4C83.8,23.4,83.3,23.8,83.8,23.8
                              L83.8,23.8z"></path>
                    </g>
                    <g>
                        <path class="st0" d="M78.3,30.8c-0.5,0.8-0.1,1.6,0.4,2.3c0.5,0.8,1.5,0.8,2.3,0.4c1.8-0.8,1.1-3.5,0.3-4.8
                              c-0.1-0.2-0.8,0-0.6,0.3c0.6,0.9,0.9,2.1,0.7,3.2c0,0.3-0.2,0.5-0.3,0.7c-0.7,1.1-1.5,0.2-1.8-0.3c-0.4-0.5-0.6-1.3-0.2-1.9
                              C79.1,30.5,78.4,30.6,78.3,30.8L78.3,30.8z"></path>
                    </g>
                    <g>
                        <path class="st0" d="M86.7,26.3c1,0.2,2.3,0.8,2.5,1.9c0.2,1-1.1,1.3-1.8,1.3c-0.6,0-1.3-0.2-1.8-0.5c-0.2-0.1-0.8,0.2-0.7,0.2
                              c1.3,0.6,3.2,0.9,4.5,0c1.8-1.4-0.9-2.9-2.1-3.2C87.1,26,86.5,26.3,86.7,26.3L86.7,26.3z"></path>
                    </g>
                    <g>
                        <path class="st0" d="M86.7,24.4c1-0.2,2.4,0,3.2,0.6c0.4,0.3,0.6,0.8,0.5,1.3c0,0.5-0.2,1.5-0.8,1.6c-0.3,0.1-0.6,0.5-0.1,0.4
                              c1.4-0.2,2-2.1,1.3-3.2c-0.8-1.2-3-1.3-4.3-1C86.2,24.1,86.3,24.5,86.7,24.4L86.7,24.4z"></path>
                    </g>
                    <g>
                        <path class="st0" d="M78.2,32.4c0.1,1.3-1.3,1.8-2.1,0.9c-0.5-0.6-0.9-1.6-0.6-2.4c0.1-0.3-0.5,0-0.6,0.3
                              c-0.4,1.3,0.4,2.7,1.6,3.1c1.3,0.3,2.5-0.7,2.4-2C78.9,31.9,78.2,32.1,78.2,32.4L78.2,32.4z"></path>
                    </g>
                    <g>
                        <path class="st0" d="M79.7,33.7c0.3,0.6-0.4,2.5-1.2,2.3c-0.8-0.2-1.7-1.3-1.6-2.1c0-0.3-0.7-0.2-0.7,0.1
                              c-0.2,1.1,1.3,2.8,2.5,2.5c1.1-0.2,2.2-2,1.6-3C80.2,33.2,79.6,33.4,79.7,33.7L79.7,33.7z"></path>
                    </g>
                    <g>
                        <path class="st0" d="M66.2,17.8c-0.9,1.9,0.6,2.9,1.2,4.4c1,2.3-1.4,4.2-1.8,6.2c0,0.1,0,0.1,0.1,0.1c0,0,0,0,0,0
                              c0.1,0.1,0.4,0,0.5-0.1c3.5-2.2,4.4-7.1,2.8-10.6c-0.1-0.2-0.8,0-0.7,0.2c1.1,2.4,1.1,5-0.2,7.4c-0.4,0.7-0.9,1.3-1.4,1.9
                              c-1,1.2-0.4,0.6,0.2-0.4c0.9-1.5,1.4-3.3,1.1-5c-0.1-0.4-0.5-0.7-0.8-1c-0.7-0.8-0.9-2.3-0.4-3.3
                              C66.9,17.5,66.3,17.5,66.2,17.8L66.2,17.8z"></path>
                    </g>
                    <g>
                        <path class="st0" d="M67.5,15.9c0.7-0.7,1.5-1.1,2.5-1.4c0.5-0.1,1.2-0.4,1.5-0.8c1.2-1.7-0.4-3.4-0.8-5
                              C70.4,8.9,70.2,8.9,70,9c1.3,0.6,2.5,2.2,2.7,3.6c0.4,2.3-1.8,5.2-4.3,4.2c-0.2-0.1-0.7,0.2-0.7,0.2c1.8,0.7,3.5,0.1,4.7-1.4
                              c1.8-2.2,0.6-5.7-1.9-6.9c-0.1,0-0.7,0-0.7,0.2c0.4,1.6,1.8,2.9,1,4.6c-0.3,0.7-1.9,0.9-2.7,1.2c-0.6,0.2-1,0.7-1.4,1.1
                              C66.8,16,67.3,16.1,67.5,15.9L67.5,15.9z"></path>
                    </g>
                    <g>
                        <path class="st0" d="M71.2,16.6c0.6,0,1.1-0.1,1.6,0.3c0.5,0.4,0.8,1.3,0.4,1.8c-0.5,0.7-2.4,0.3-2.9-0.1
                              c-0.2-0.1-0.8,0.2-0.7,0.3c1,0.7,3,0.7,4,0c0.6-0.5,0.5-1.4,0.1-2c-0.6-0.7-1.3-0.7-2.2-0.7C71.3,16.3,70.7,16.6,71.2,16.6
                              L71.2,16.6z"></path>
                    </g>
                    <g>
                        <path class="st0" d="M69.3,22c0.5,0.9,2.1,1.8,3.1,1.1c1.3-0.9,0.4-2.7,0-3.8c-0.1-0.3-0.8-0.1-0.7,0.2
                              c0.3,0.8,0.7,1.7,0.6,2.6c-0.1,1.5-2,0.4-2.4-0.3C69.7,21.4,69.1,21.6,69.3,22L69.3,22z"></path>
                    </g>
                    <g>
                        <path class="st0" d="M72.8,15.3c0.5-0.9,1.2-1.5,2.1-1.9c1-0.5,2.2-0.4,2.4,0.9c0.2,1.6-2.1,2.2-3.3,2.2
                              c-0.3,0-0.7,0.4-0.3,0.4c1.7,0,4.7-1,4.2-3.3c-0.3-1.1-1.6-1-2.5-0.9c-1.4,0.3-2.6,1.2-3.3,2.4C72,15.6,72.7,15.5,72.8,15.3
                              L72.8,15.3z"></path>
                    </g>
                    <g>
                        <path class="st0" d="M69,23.3c0.1,1.4,0.9,3.8,2.6,3.8c0.8,0,1.7-0.3,1.9-1.2c0.2-0.9-0.2-2-0.6-2.7c-0.1-0.2-0.8,0.1-0.7,0.2
                              c0.3,0.6,0.5,1.2,0.6,1.8c0.2,0.9-0.3,2.1-1.4,1.4c-1.1-0.6-1.6-2.3-1.7-3.4C69.6,22.9,68.9,23.1,69,23.3L69,23.3z"></path>
                    </g>
                    <g>
                        <path class="st0" d="M75.4,16.6c1-0.1,1.2,1.2,1.1,2c-0.2,1.2-2,1.6-3,1c-0.2-0.1-0.8,0.2-0.7,0.2c1.1,0.7,3.4,0.3,4.1-0.9
                              c0.7-1.1,0.2-2.8-1.3-2.7C75.5,16.3,75,16.6,75.4,16.6L75.4,16.6z"></path>
                    </g>
                    <g>
                        <path class="st0" d="M72.3,20.9c1,0.3,2.1,0.9,2.6,1.9c0.2,0.5,0.2,1.1-0.4,1.2c-0.4,0.1-0.9,0-1.3-0.2
                              c-0.2-0.1-0.8,0.2-0.6,0.3c0.9,0.4,2.6,0.5,3-0.6c0.3-0.7-0.3-1.4-0.8-1.9c-0.6-0.6-1.4-0.9-2.1-1.1
                              C72.5,20.5,71.9,20.8,72.3,20.9L72.3,20.9z"></path>
                    </g>
                    <g>
                        <path class="st0" d="M75.7,19.8c0.8,0.3,2,1.1,1.8,2.1c0,0.2,0.7,0.1,0.7-0.1c0.2-1.1-1-1.9-1.9-2.2
                              C76.1,19.4,75.4,19.7,75.7,19.8L75.7,19.8z"></path>
                    </g>
                    <g>
                        <path class="st0" d="M81.2,33.1c0.6,0.9,1.5,1.5,2.7,1.3c0.6-0.2,1-0.7,1.2-1.3c0.3-0.9-0.1-1.9-0.3-2.7
                              C84.7,30,84,30.2,84,30.5c0.3,1,1,2.8-0.2,3.4c-0.7,0.4-1.8-0.8-2.2-1.3C81.5,32.3,80.9,32.7,81.2,33.1L81.2,33.1z"></path>
                    </g>
                    <g>
                        <path class="st0" d="M79.8,35.2c0.7,0.8,1.2,2.1,2.4,1.8c1.3-0.4,1.8-1.7,1.3-2.9c-0.1-0.3-0.8-0.1-0.7,0.2
                              c0.3,0.7,0.2,2.5-1,2.2c-0.7-0.2-1.2-1.1-1.6-1.6C80.1,34.6,79.6,34.9,79.8,35.2L79.8,35.2z"></path>
                    </g>
                    <g>
                        <path class="st0" d="M84.4,31.7c0.6,1,2.1,1.4,3.1,1.1c0.5-0.1,0.9-0.5,1.1-1c0.2-0.9-0.4-1.4-0.6-2.1
                              c-0.1-0.3-0.8-0.1-0.7,0.2c0.2,0.7,1.4,2.2,0,2.5c-0.8,0.2-1.8-0.3-2.2-1C84.9,31.1,84.2,31.4,84.4,31.7L84.4,31.7z"></path>
                    </g>
                    <g>
                        <path class="st0" d="M84.1,33.8c0,1.7,2.2,2.6,3.7,2.1c1.4-0.5,1-2.6,0.3-3.5c-0.1-0.1-0.8,0.1-0.7,0.2
                              c0.6,0.7,0.9,2.1,0.3,2.9c-0.4,0.6-1.6,0-2.1-0.3c-0.6-0.4-0.8-0.8-0.8-1.5C84.8,33.4,84.1,33.5,84.1,33.8L84.1,33.8z"></path>
                    </g>
                    <g>
                        <path class="st0" d="M87.9,30.9c1,0.3,2,0.8,2.5,1.8c0.5,1.2-0.9,2.1-1.7,1.1c-0.2-0.2-0.7,0.1-0.5,0.3
                              c0.7,0.8,2.4,0.6,2.9-0.4c0.7-1.6-1.5-2.8-2.7-3.2C88.1,30.4,87.5,30.8,87.9,30.9L87.9,30.9z"></path>
                    </g>
                    <g>
                        <path class="st0" d="M82.4,36.7c0.3,0.7,0.4,1.7,1.1,2.1c0.7,0.4,1.5,0.5,2.2,0.1c1-0.6,0.9-2.7,0.4-3.6
                              c-0.1-0.2-0.8,0-0.6,0.3c0.4,0.7,0.4,1.8,0.1,2.6c-0.3,1-1.4,0.5-1.8-0.1c-0.3-0.4-0.4-1.1-0.6-1.6
                              C83,36.3,82.3,36.5,82.4,36.7L82.4,36.7z"></path>
                    </g>
                    <g>
                        <path class="st0" d="M87.8,35.4c0.3,0.7,0.6,1.4,0.7,2.2c0.1,0.4,0.2,1.6-0.7,1.4c-0.5-0.1-1-0.6-1.3-1c-0.2-0.2-0.8,0-0.6,0.3
                              c0.7,0.9,2.1,1.8,3,0.7c0.8-1-0.1-2.9-0.5-3.9C88.3,34.9,87.7,35.2,87.8,35.4L87.8,35.4z"></path>
                    </g>
                    <g>
                        <path class="st0" d="M89.4,34.6c0.8,0.6,1.3,1.4,1.5,2.4c0.1,0.6,0.1,1.5-0.7,1.4c-0.4-0.1-0.7-0.2-1-0.4
                              c-0.2-0.1-0.8,0.2-0.6,0.3c0.7,0.4,2.1,0.9,2.7,0.1c1-1.2-0.2-3.3-1.3-4.1C89.8,34.1,89.2,34.4,89.4,34.6L89.4,34.6z"></path>
                    </g>
                    <g>
                        <path class="st0" d="M83.9,39c0.2,1.6,0.8,4.4,3,4c1.4-0.2,1.6-2.7,1.2-3.7c-0.1-0.3-0.8-0.1-0.7,0.2c0.3,0.7,0.3,3.4-0.9,3.1
                              c-1.5-0.4-1.7-2.5-1.9-3.7C84.5,38.5,83.8,38.7,83.9,39L83.9,39z"></path>
                    </g>
                    <g>
                        <path class="st0" d="M89.3,38.5c0.9,0.5,1,2,1,2.8c0,0.5-0.1,1.5-0.8,1.2c-0.5-0.2-1-0.8-1.2-1.4c-0.1-0.2-0.7,0.1-0.7,0.2
                              c0.4,1.2,2.1,2.3,3.1,1.1c0.8-0.9,0.4-3.5-0.7-4.1C89.8,38.2,89.2,38.5,89.3,38.5L89.3,38.5z"></path>
                    </g>
                    <g>
                        <path class="st0" d="M90.9,38.4c0.7,0.3,1.1,1.2,1.3,1.9c0.1,0.4,0.2,0.8,0.2,1.3c0,0.7-0.7,1.5-1.4,0.8
                              c-0.2-0.2-0.9,0.1-0.6,0.3c1,0.9,2.5,0.2,2.7-1c0.2-1.3-0.5-3.2-1.7-3.6C91,37.9,90.5,38.3,90.9,38.4L90.9,38.4z"></path>
                    </g>
                    <g>
                        <path class="st0" d="M87,42.5c0,1.4,1,4,2.7,4c1.8,0,1.8-2.9,1.2-4c-0.1-0.2-0.8,0-0.7,0.2c0.3,0.7,0.6,4-0.7,3.4
                              c-1.1-0.5-1.8-2.5-1.8-3.7C87.7,42.2,87,42.3,87,42.5L87,42.5z"></path>
                    </g>
                    <g>
                        <path class="st0" d="M84.9,41.9c-0.7,1.4-0.5,3.4,0.8,4.3c1.3,1,2.3-0.7,2.6-1.8c0.1-0.3-0.6-0.2-0.7,0.1
                              c-0.1,0.4-0.3,0.8-0.5,1.1c-0.5,0.8-1.2,0-1.5-0.4C85,44.3,85,43,85.5,42C85.7,41.7,85,41.7,84.9,41.9L84.9,41.9z"></path>
                    </g>
                    <g>
                        <path class="st0" d="M81.4,69.5C75,73,66.9,74.2,60.1,70.9c-0.6-0.3-5-3.8-2.1-1.9c0.9,0.6,1.9,0.9,2.9,1
                              c4,0.4,7.3-0.4,11.1-1.7c2.2-0.8,4.1-1.8,6.1-2.9c1.9-1.1,6.4-2.1,5.4,1.1C83.2,67.8,82.4,68.7,81.4,69.5
                              c-0.3,0.3,0.3,0.2,0.5,0.1c1.9-1.5,2.9-3.2,3.1-5.7c0,0,0,0,0,0c-2.2-1.1-5.1,0.5-7,1.5c-4.8,2.5-9.6,4.9-15.3,4.6
                              c-2.6-0.2-3.8-1.7-6.2-2.5c-0.1,0-0.7,0.1-0.6,0.2c1.9,4.6,8.6,5.3,12.9,5.5c4.4,0.3,9.3-1.5,13.1-3.6
                              C82.2,69.4,81.5,69.4,81.4,69.5z"></path>
                    </g>
                    <g>
                        <path class="st0" d="M86.1,63.1c1-3.9,2.1-0.2,2.4,1.4c0.4,1.8,0.2,3.9,0.3,5.7c0.2,3.1,1.2,6.4,2.6,9.1
                              c3.2,6.3,9.4,11.4,15.8,14.1c2.3,1-3.6-0.5-4.2-0.8c-1.7-0.7-3.4-1.6-5-2.5c-3.1-1.7-5.8-4.6-7.9-7.3c-3.4-4.4-4.4-10.4-5-15.8
                              c0-0.2-0.7,0-0.7,0.2c0.8,6.4,2.1,12.6,6.5,17.6c4.1,4.6,11.1,10,17.7,9.1c0.1,0,0.6-0.2,0.3-0.3c-7.3-3-13.6-8.3-17.2-15.5
                              c-1.4-2.7-2-6.2-2.1-9.2c-0.1-2.5,0.4-6.4-2-8.1c-0.2-0.1-0.5,0-0.6,0.1c-0.8,0.7-1.2,1.3-1.5,2.3C85.3,63.4,86,63.3,86.1,63.1
                              L86.1,63.1z"></path>
                    </g>
                    <g>
                        <path class="st0" d="M85.6,75.2c-0.4,3.4-0.6,6.7-0.6,10.1c0,0.3,0.7,0.2,0.7-0.1c0-3.4,0.3-6.7,0.6-10.1
                              C86.3,74.8,85.6,74.9,85.6,75.2L85.6,75.2z"></path>
                    </g>
                    <g>
                        <path class="st0" d="M84,84.4c4.7,3.6,1.9,11,0.1,15.3c-0.8,2-1.3,4-1.5,6.2c-0.3,2.8,0,3.2-0.3,0.3c-0.6-6-4-18,2.2-21.8
                              c0.4-0.2-0.2-0.4-0.4-0.2c-4.1,2.5-3.8,7.2-3.5,11.4c0.2,2.6,0.6,5.1,0.8,7.7c0.1,1.2-0.2,4.9,0.7,5.8c0.2,0.2,0.6,0,0.7-0.2
                              c0.7-1.8,0.5-3.8,0.8-5.7c0.5-2.9,2-5.5,3-8.2c1.1-3.1,0.8-8.7-2-10.9C84.4,83.9,83.8,84.2,84,84.4z"></path>
                    </g>
                    <g>
                        <path class="st0" d="M66.9,83.1c-1.4,0-2.5,1.1-3.4,2.1c-2,2.5-3.6,7.3-2.5,10.5c0.1,0.2,0.6-0.1,0.7-0.2
                              c0.5-0.7,0.8-1.5,1.2-2.3c0.7-1.3,1.7-2.5,2.6-3.6c1.5-1.9,3-3.9,2.5-6.5c0-0.1-0.7,0-0.7,0.2c0.5,2.8-1.4,5-3,7.1
                              c-1.3,1.6-2,3.6-3.3,5.2c0.2-0.1,0.5-0.1,0.7-0.2c-0.5-1.4-0.2-3.9,0.1-5.3c0.3-1.9,3.3-6.8,5.6-6.9
                              C67.5,83.4,67.2,83.1,66.9,83.1L66.9,83.1z"></path>
                    </g>
                    <g>
                        <path class="st0" d="M84,72.9c-0.6,4.1-1,8.1-1.2,12.2c0,0.3,0.7,0.2,0.7-0.1c0.1-4.1,0.6-8.1,1.2-12.2
                              C84.7,72.5,84,72.6,84,72.9L84,72.9z"></path>
                    </g>
                    <g>
                        <path class="st0" d="M79.6,75.1c-1.2,3.6-1.9,7.5-3.3,11.1c-1,2.5-4.3,4.4-6.3,6.1c-1.5,1.3-2.8,2.7-3.9,4.3
                              c-0.1,0.1,0.4,0,0.5,0c3.4-1.1,6.8-2.4,9.5-4.8c1.7-1.5,2-4.1,2.5-6.2c0.8-3.3,3.7-6.6,5.7-9.2c0.1-0.2-0.5-0.1-0.6,0
                              c-1.4,1.8-2.7,3.7-4,5.7c-1.5,2.3-2,4.7-2.7,7.3c-1,3.6-5.7,5.2-8.8,6.3c-0.6,0.2-1.6,0.9-1.2,0.5c0.9-1.2,1.8-2.3,2.8-3.3
                              c3-2.8,6.7-4.6,7.9-8.7c0.9-3.1,1.7-6.2,2.7-9.3C80.3,74.8,79.6,74.9,79.6,75.1L79.6,75.1z"></path>
                    </g>
                    <g>
                        <path class="st0" d="M59.2,70.1c7.3,4.2,16.4-1.4,23-4.2c0.3-0.1,0-0.4-0.2-0.3c-6.5,2.8-15.3,8.4-22.5,4.2
                              C59.4,69.7,59,70,59.2,70.1L59.2,70.1z"></path>
                    </g>
                    <g>
                        <path class="st0" d="M75,68.3c1-0.4,2-0.9,2.9-1.5c1.3-0.8,3.6-2.3,5.1-1.8c0.2,0.1,0.8-0.2,0.6-0.3c-1.2-0.4-2.2,0-3.4,0.5
                              c-1.9,0.9-3.7,2.1-5.6,2.9C74.2,68.3,74.8,68.3,75,68.3L75,68.3z"></path>
                    </g>
                    <g>
                        <path class="st0" d="M82,67.2c-3.4,1.5-6.6,2.7-10.2,3.4c-0.4,0.1-0.3,0.5,0.1,0.4c3.7-0.7,6.9-2,10.4-3.5
                              C82.7,67.4,82.3,67.1,82,67.2L82,67.2z"></path>
                    </g>
                    <g>
                        <path class="st0" d="M8.1,72.7c2.4-1.4,5.8-0.4,8.3,0.2c2.3,0.5,4.6,0.7,6.9,1.2c0.2,0,0.8-0.2,0.6-0.3
                              C20.4,73,16.5,72,13,71.9c-2.1-0.1-3.6-0.2-5.4,0.8C7.3,72.8,8,72.8,8.1,72.7L8.1,72.7z"></path>
                    </g>
                    <g>
                        <path class="st0" d="M12.8,72.9c3.6,0.8,7.2,1.6,10.8,2.4c0.2,0,0.8-0.3,0.4-0.3c-3.6-0.8-7.2-1.6-10.8-2.4
                              C13.1,72.5,12.5,72.8,12.8,72.9L12.8,72.9z"></path>
                    </g>
                    <g>
                        <path class="st0" d="M26.8,52.4c-0.1,3.2-0.6,6.3-0.6,9.6c0,2.2,0.2,4.4,0.2,6.6c0,0.2,0.5,0.1,0.5,0c0.1-1.9-0.2-3.9-0.1-5.9
                              c0-3.5,0.4-6.8,0.6-10.3C27.3,52.1,26.8,52.2,26.8,52.4L26.8,52.4z"></path>
                    </g>
                    <g>
                        <path class="st0" d="M26.1,52.7c-0.9,6.2-0.8,12.3-0.3,18.6c0,0.1,0.5,0,0.5-0.1c-0.4-6.2-0.6-12.4,0.3-18.5
                              C26.6,52.5,26.1,52.6,26.1,52.7L26.1,52.7z"></path>
                    </g>
                    <g>
                        <path class="st0" d="M26.9,11c1.9,2.1,0.7,6.3-0.4,8.5c0,0.1,0.4,0.1,0.5-0.1c1.1-2.2,2.3-6.5,0.4-8.6
                              C27.3,10.7,26.8,10.9,26.9,11L26.9,11z"></path>
                    </g>
                    <g>
                        <path class="st0" d="M24.9,22.4c-1.2,1.6-2.3,3.4-3.3,5.1c-0.5,0.8-0.8,1.5-1.1,2.4c-0.3,1,0.3,2.1,0.1,3.1
                              c0,0.1,0.4,0,0.5-0.1c0.1-0.7,0-1.2-0.1-1.9c-0.3-1.3,0.5-2.5,1.1-3.6c1-1.7,2.2-3.4,3.3-5.1C25.4,22.2,25,22.2,24.9,22.4
                              L24.9,22.4z"></path>
                    </g>
                    <g>
                        <path class="st0" d="M20.3,33.1c-0.2-1-0.5-1.9-0.4-2.9c0.1-0.9,0.4-2,1.1-2.6c0.2-0.2-0.3-0.2-0.4-0.1c-0.6,0.6-0.8,1.4-1,2.2
                              c-0.3,1.2,0.1,2.3,0.3,3.5C19.9,33.4,20.4,33.3,20.3,33.1L20.3,33.1z"></path>
                    </g>
                    <g>
                        <path class="st0" d="M21.2,33.2c0.4-0.6,0.6-1.3,0.7-2c0.2-1.4,0.9-2.5,1.9-3.6c0.2-0.2-0.2-0.3-0.4-0.1
                              c-0.7,0.7-1.3,1.5-1.6,2.4c-0.4,1-0.2,2.2-0.9,3.2C20.6,33.3,21.1,33.4,21.2,33.2L21.2,33.2z"></path>
                    </g>
                    <g>
                        <path class="st0" d="M76.2,87.5c-0.8,2.1-2.3,3.6-4.1,4.9c-1.2,0.8-2.5,1.6-3.4,2.8c-0.1,0.2,0.3,0.2,0.4,0
                              c1.1-1.5,2.9-2.3,4.4-3.5c1.4-1.2,2.5-2.6,3.2-4.3C76.8,87.3,76.3,87.3,76.2,87.5L76.2,87.5z"></path>
                    </g>
                    <g>
                        <path class="st0" d="M76.9,86.9c-0.1,1.4-0.8,2.7-1.5,3.9c-0.1,0.2,0.4,0.1,0.4,0c0.7-1.2,1.4-2.5,1.6-4
                              C77.4,86.7,76.9,86.8,76.9,86.9L76.9,86.9z"></path>
                    </g>
                    <g>
                        <path class="st0" d="M79,81.4c0.7-2.1,1.4-4.9,2.9-6.6c0.2-0.2-0.3-0.3-0.4-0.1c-1.6,1.8-2.3,4.5-3,6.7
                              C78.4,81.6,78.9,81.6,79,81.4L79,81.4z"></path>
                    </g>
                    <g>
                        <path class="st0" d="M78.9,82.7c0.6-0.6,0.9-1.4,1.3-2.2c0.6-1.3,1.5-2.4,2.1-3.7c0.1-0.1-0.6-0.1-0.7,0.1c-0.5,1-1.2,2-1.8,3
                              c-0.5,0.9-0.8,2-1.6,2.8C78,82.9,78.7,82.8,78.9,82.7L78.9,82.7z"></path>
                    </g>
                    <g>
                        <path class="st0" d="M87.1,65.1c1.1,5.6,1,11,4.3,16c2.5,3.9,5.8,7.6,9.9,9.8c0.1,0.1,0.6-0.1,0.4-0.2c-3.7-2.1-6.4-5.3-9-8.6
                              C88.6,77,88.8,71,87.6,65C87.5,64.8,87.1,65,87.1,65.1L87.1,65.1z"></path>
                    </g>
                    <g>
                        <path class="st0" d="M87.5,74.8c2.4,7.9,8.1,14.4,15.6,17.7c0.2,0.1,0.6-0.2,0.4-0.2C96,89,90.4,82.4,88,74.6
                              C87.9,74.5,87.5,74.6,87.5,74.8L87.5,74.8z"></path>
                    </g>
                    <g>
                        <path class="st0" d="M65.8,84.4c-0.9,0.6-1.6,1.3-2.1,2.3c-0.7,1.3-0.6,2.9-1.2,4.2c-0.1,0.2,0.6,0.1,0.7-0.1
                              c1-2.2,0.6-4.8,3-6.3C66.6,84.3,66,84.3,65.8,84.4L65.8,84.4z"></path>
                    </g>
                    <g>
                        <path class="st0" d="M66.3,84.8c-1.2,0.8-1.6,2.2-2.1,3.5c-0.1,0.4,0.6,0.3,0.7,0.1c0.4-1.2,0.8-2.5,1.9-3.3
                              C67.2,84.8,66.6,84.6,66.3,84.8L66.3,84.8z"></path>
                    </g>
                    <g>
                        <path class="st0" d="M63.7,85.1C49.1,89.4,34,84.9,24.2,73.3c-9.4-11.1-10.8-26.5-4.7-39.3c0.2-0.4-0.3-0.8-0.5-0.5
                              c-6.7,14.1-4.4,30.4,6.1,42c9.7,10.7,25,14.1,38.6,10.1C64.2,85.4,64.1,85,63.7,85.1L63.7,85.1z"></path>
                    </g>
                    <g>
                        <path class="st0" d="M84.4,68.5c-4,6.7-9.8,12-16.9,15.3c0,0,0,0.4,0.3,0.3c7.3-3.4,13.2-8.6,17.3-15.5
                              C85.2,68.2,84.5,68.3,84.4,68.5L84.4,68.5z"></path>
                    </g>
                    <g>
                        <path class="st0" d="M88.3,58.8c-0.2,1-0.5,2-0.9,3c-0.1,0.2,0.6,0.1,0.7-0.1c0.3-1,0.6-2,0.9-3C89,58.4,88.3,58.5,88.3,58.8
                              L88.3,58.8z"></path>
                    </g>
                    <g>
                        <path class="st0" d="M74.1,20.2c0.9,0.6,1.7,1.3,2.5,2c0.2,0.1,0.8-0.1,0.7-0.3c-0.8-0.7-1.6-1.4-2.5-2
                              C74.6,19.8,73.9,20.1,74.1,20.2L74.1,20.2z"></path>
                    </g>
                    <g>
                        <path class="st0" d="M61.6,14.2c1.9,0.5,3.5,1,5.2,1.8c0.2,0.1,1-0.1,0.8-0.2c-1.8-0.8-3.6-1.4-5.4-1.9
                              C62,13.9,61.4,14.2,61.6,14.2L61.6,14.2z"></path>
                    </g>
                    <g>
                        <path class="st0" d="M30,20.9c6.1-4.7,13-7.2,20.6-7.7c0.2,0,0.7-0.4,0.3-0.4c-7.9,0.5-15.1,3.1-21.4,8
                              C29.1,21,29.8,21,30,20.9L30,20.9z"></path>
                    </g>
                    <g>
                        <path class="st0" d="M80.5,70c-12.2,16.3-35.2,19-50.7,5.6c-0.2-0.2-0.9,0.1-0.6,0.3c15.9,13.7,39.5,10.9,52-5.9
                              C81.4,69.7,80.7,69.8,80.5,70L80.5,70z"></path>
                    </g>
                    <g>
                        <path class="st0" d="M85.7,58.5c-0.5,1.8-1.1,3.7-1.8,5.4c-0.1,0.2,0.6,0.1,0.7-0.1c0.8-1.8,1.3-3.6,1.8-5.4
                              C86.5,58.1,85.8,58.2,85.7,58.5L85.7,58.5z"></path>
                    </g>
                    <g>
                        <path class="st0" d="M58,16.1c2.8,0.5,5.5,1.3,8.2,2.4c0.3,0.1,0.8-0.3,0.4-0.5c-2.7-1.1-5.5-1.9-8.3-2.4
                              C57.9,15.5,57.6,16,58,16.1L58,16.1z"></path>
                    </g>
                    <g>
                        <path class="st0" d="M28.7,25.3c6.4-5.9,14.1-9.3,22.8-9.7c0.2,0,0.4-0.2,0-0.2c-9,0.4-16.8,3.6-23.4,9.8
                              C27.9,25.4,28.6,25.4,28.7,25.3L28.7,25.3z"></path>
                    </g>
                    <g>
                        <path class="st0" d="M24.6,69.8c-7.6-11.2-8.2-25.2-1.6-37.2c0.1-0.3-0.5-0.2-0.6,0c-6.6,12-6,26,1.6,37.4
                              C24.1,70.2,24.8,70,24.6,69.8L24.6,69.8z"></path>
                    </g>
                </g>
            </g>
            <g>
                <path class="st0" d="M87.4,52.7c-0.4,0.6-1.3,0.6-0.4,1.5c0.1-0.1,0.1-0.2,0.2-0.3c-0.9,0.4-1,0.8-0.5,1.6
                      c0.1-0.1,0.2-0.2,0.4-0.3c-1,0.1-1.2,0.7-0.4,1.4c0.1-0.1,0.2-0.2,0.4-0.3c-0.4,0-0.7,0.1-1,0.3c-0.4,0.3,0.2,0.9,0.2,0.9
                      c-1.1,0.7-0.6,1.2,0.5,1.3c0.3,0.1,2.5,0.6,2.6-0.1c0.1-0.6-0.4-0.7,0.2-1c0.5-0.3,0-0.7-0.3-0.9c-0.2,0.1-0.3,0.2-0.5,0.3
                      c1,0,1.6-0.4,0.8-1.4c-0.1,0.1-0.2,0.2-0.4,0.3c0.4-0.1,0.7-0.2,0.9-0.5c0.1-0.1,0-0.3-0.1-0.4c-0.4-0.3-0.4-0.1,0-0.4
                      c0.5-0.4-0.1-0.7,0-0.8c0.5-0.7-0.3-1.1-0.1-1.9c0.2-0.7-1.8-0.4-2.1-0.3c-0.3,0.1-0.8,0.7-0.7,1c0.2,0.5,1.8,0.2,2.2,0.2
                      c0.4,0,0.6-0.4,0.1-0.4c-3.4,0.2-0.1-1.1-0.3-0.2c-0.1,0.5,0.5,1.1,0.1,1.5c0,0-0.1,0.1,0,0.2c0.3,0.1,0.2,0.4-0.1,0.7
                      C89,54.9,88.9,55,89,55.1c0.1,0.2,0.2,0.4,0.3,0.6c-0.1,0-0.5,0.2-0.4,0.3c0.2,0.2,0.2,0.4,0.1,0.7c-0.1,0-0.7,0.2-0.5,0.3
                      c0.8,0.7-0.2,0.5-0.2,0.9c0,0.1,0.2,0.6,0.1,0.6c-0.3-0.1-0.6-0.1-0.9-0.1c-0.2,0-1.8-0.1-1.3-0.6c0,0,0.4-0.2,0.4-0.3
                      c0.2-0.3-0.3-0.8,0.2-0.9c0.1,0,0.5-0.2,0.4-0.3c-0.1-0.1-0.7-0.7-0.3-0.7c0.1,0,0.5-0.1,0.4-0.3c-0.3-0.4-0.5-0.8,0.1-1
                      c0.1,0,0.3-0.2,0.2-0.3c-0.7-0.7,0.2-0.8,0.4-1.2C88.2,52.5,87.5,52.5,87.4,52.7L87.4,52.7z"></path>
            </g>
            <g>
                <path class="st0" d="M87.3,54.2c0.4,0,0.7,0,1.1,0c0.2,0,0.3,0,0.5,0c0.1,0,0.3-0.1,0.4-0.1c0.2,0.1,0.8-0.2,0.6-0.3
                      c-0.3-0.1-0.7,0-1,0.1c-0.5,0-0.9,0-1.4,0C87.1,54,86.8,54.3,87.3,54.2L87.3,54.2z"></path>
            </g>
            <g>
                <path class="st0" d="M86.9,55.7c0.4,0,0.7-0.1,1.1-0.2c0.4-0.1,0.9-0.3,1.3-0.3c0.2,0,0.4,0,0.5-0.2c0.1-0.1-0.1-0.3-0.2-0.3
                      c-0.9,0-1.7,0.5-2.6,0.5C86.5,55.2,86.4,55.7,86.9,55.7L86.9,55.7z"></path>
            </g>
            <g>
                <path class="st0" d="M86.8,56.7c0.4,0,0.7-0.1,1-0.2c0.4-0.2,0.8-0.5,1.3-0.4c0.2,0,0.8-0.3,0.4-0.3c-0.4-0.1-0.8,0-1.1,0.1
                      c-0.4,0.2-0.9,0.5-1.4,0.5C86.9,56.3,86.4,56.7,86.8,56.7L86.8,56.7z"></path>
            </g>
            <g>
                <path class="st0" d="M89.5,56.6c-0.5,0-3.7-0.2-3.3,0.9c0,0.1,0.1,0.1,0.2,0.1c0.9,0.1,1.7,0.5,2.6,0.2c0.4-0.1,0.3-0.5-0.1-0.4
                      c-0.7,0.2-1.5-0.2-2.3-0.3c0.1,0,0.1,0.1,0.2,0.1c-0.1-0.3,0.8-0.3,1-0.3c0.5,0,1,0,1.5,0C89.7,57,89.9,56.6,89.5,56.6L89.5,56.6
                      z"></path>
            </g>
            <g>
                <path class="st0" d="M51.1,85.7c3.6,0.1,7.1-0.2,10.5-0.9c0.3-0.1,0.2-0.3-0.1-0.3c-3.4,0.7-6.8,1-10.3,0.9
                      C51,85.4,50.7,85.7,51.1,85.7L51.1,85.7z"></path>
            </g>
            <g>
                <path class="st0" d="M40.4,16.3c-1.9,0.7-3.7,1.5-5.5,2.4c-0.3,0.2,0,0.4,0.2,0.3c1.7-0.9,3.5-1.7,5.4-2.4
                      C40.8,16.6,40.7,16.2,40.4,16.3L40.4,16.3z"></path>
            </g>
            <g>
                <path class="st0" d="M46.7,14.7c-0.6,0.1-1.2,0.2-1.8,0.4c-0.4,0.1-0.3,0.4,0.1,0.3c0.5-0.1,1.1-0.2,1.7-0.3
                      C46.9,15,47.2,14.6,46.7,14.7L46.7,14.7z"></path>
            </g>
            <g>
                <path class="st0" d="M17.9,58.7c0.5,1.9,1.1,3.8,2,5.7c0.1,0.2,0.5,0,0.5-0.1c-0.8-1.8-1.5-3.7-2-5.7
                      C18.3,58.4,17.8,58.6,17.9,58.7L17.9,58.7z"></path>
            </g>
            <g>
                <path class="st0" d="M16.8,47.5c-0.1,3,0.1,6.1,0.6,9.1c0,0.2,0.5,0.1,0.5-0.1c-0.5-3-0.7-6-0.6-9C17.3,47.2,16.8,47.3,16.8,47.5
                      L16.8,47.5z"></path>
            </g>
            <g>
                <path class="st0" d="M20.2,34.1c-1.1,2.2-2,4.5-2.5,6.8c0,0.1,0.4,0,0.5-0.1c0.6-2.4,1.4-4.7,2.5-6.8
                      C20.7,33.9,20.2,33.9,20.2,34.1L20.2,34.1z"></path>
            </g>
        </g>
    </g>
    <g>
        <path class="st1" d="M130.8,59.8c-1.9,0.8-3.9,1.2-6,1.2c-3.2,0-5.9-1.1-7.9-3.3c-2-2.2-3.1-5-3.1-8.5c0-3.8,1.1-6.9,3.3-9.2
              c2.2-2.3,5-3.5,8.4-3.5c1.8,0,3.6,0.3,5.2,0.9v1.7c-1.7-0.7-3.4-1.1-5.2-1.1c-3,0-5.4,1-7.2,3c-1.9,2-2.8,4.7-2.8,8
              c0,3.2,0.9,5.8,2.7,7.6c1.8,1.9,4,2.8,6.8,2.8c2.2,0,4.1-0.4,5.9-1.3V59.8z"></path>
        <path class="st1" d="M148.2,60.6l-3.2-6.9c-0.6-1.4-1.3-2.4-1.9-2.9c-0.6-0.5-1.5-0.7-2.4-0.7h-2.9v10.5h-1.6V36.9h6.6
              c2.1,0,3.7,0.6,4.9,1.7c1.2,1.1,1.8,2.6,1.8,4.5c0,1.7-0.5,3.1-1.5,4.3c-1,1.1-2.3,1.9-4.1,2.2v0.1c0.9,0.4,1.8,1.5,2.7,3.4
              l3.5,7.5H148.2z M137.7,38.5v10.1h4.1c1.8,0,3.2-0.5,4.3-1.4c1.1-0.9,1.6-2.2,1.6-3.9c0-1.5-0.5-2.7-1.4-3.5
              c-1-0.9-2.3-1.3-4.1-1.3H137.7z"></path>
        <path class="st1" d="M154.8,60.6V36.9h1.6v23.7H154.8z"></path>
        <path class="st1" d="M161.8,59.8v-1.9c1.7,1.1,3.4,1.6,5.1,1.6c1.8,0,3.3-0.4,4.2-1.1c1-0.8,1.4-1.8,1.4-3.2c0-1.2-0.3-2.2-1-2.9
              c-0.6-0.7-2-1.7-4.2-2.9c-2.4-1.4-3.9-2.6-4.6-3.5c-0.6-0.9-1-2-1-3.3c0-1.7,0.6-3.1,1.9-4.3c1.3-1.2,3-1.7,5.2-1.7
              c1.4,0,2.8,0.2,4.2,0.7V39c-1.4-0.6-2.9-0.9-4.4-0.9c-1.6,0-2.9,0.4-3.8,1.2c-0.9,0.8-1.4,1.8-1.4,3.1c0,1.2,0.3,2.2,1,2.9
              c0.6,0.7,2,1.7,4.2,2.9c2.2,1.3,3.7,2.4,4.4,3.3c0.7,1,1.1,2.1,1.1,3.4c0,1.8-0.6,3.3-1.9,4.4c-1.3,1.1-3,1.7-5.3,1.7
              c-0.8,0-1.8-0.1-2.8-0.4C163.1,60.4,162.3,60.1,161.8,59.8z"></path>
        <path class="st1" d="M185.7,38.5v22.2h-1.6V38.5h-6.8v-1.5h15.3v1.5H185.7z"></path>
        <path class="st1" d="M196.6,60.6V36.9h1.6v23.7H196.6z"></path>
        <path class="st1" d="M221,60.6l-14.1-19.1c-0.3-0.4-0.5-0.8-0.8-1.2L206,40h-0.1c0,0.3,0,0.6,0,1v19.6h-1.6V36.9h1.3l14,19
              c0.3,0.4,0.6,0.9,1,1.5h0.1c-0.1-0.8-0.1-1.4-0.1-2V36.9h1.6v23.7H221z"></path>
        <path class="st1" d="M243.5,60.6l-2.7-7.4h-10.3l-2.7,7.4H226l8.9-23.7h1.6l8.8,23.7H243.5z M236.3,40.8c-0.1-0.3-0.2-0.7-0.3-1
              c-0.1-0.3-0.2-0.5-0.2-0.8h-0.1c-0.2,0.7-0.4,1.3-0.5,1.8l-4,11h9.1L236.3,40.8z"></path>
        <path class="st1" d="M279.1,60.6V43.8c0-0.4,0.1-1.6,0.2-3.5h-0.1c-0.3,0.9-0.6,1.6-0.9,2.1L270,60.6h-0.5L261,42.5
              c-0.3-0.6-0.5-1.3-0.8-2.2h-0.1c0.1,1.1,0.1,2.1,0.1,3.2v17.2h-1.6V36.9h1.5L269,56c0.1,0.1,0.1,0.3,0.2,0.4
              c0.1,0.2,0.1,0.4,0.2,0.6c0.1,0.3,0.2,0.6,0.3,1h0.1l0.2-0.5c0,0,0.2-0.6,0.6-1.6l8.7-18.9h1.5v23.7H279.1z"></path>
        <path class="st1" d="M302.2,60.6l-2.7-7.4h-10.3l-2.7,7.4h-1.8l8.9-23.7h1.6l8.8,23.7H302.2z M294.9,40.8c-0.1-0.3-0.2-0.7-0.3-1
              c-0.1-0.3-0.2-0.5-0.2-0.8h-0.1c-0.2,0.7-0.4,1.3-0.5,1.8l-4,11h9.1L294.9,40.8z"></path>
        <path class="st1" d="M307.3,59.8v-1.9c1.7,1.1,3.4,1.6,5.1,1.6c1.8,0,3.3-0.4,4.2-1.1c1-0.8,1.4-1.8,1.4-3.2c0-1.2-0.3-2.2-1-2.9
              c-0.6-0.7-2-1.7-4.2-2.9c-2.4-1.4-3.9-2.6-4.6-3.5c-0.6-0.9-1-2-1-3.3c0-1.7,0.6-3.1,1.9-4.3c1.3-1.2,3-1.7,5.2-1.7
              c1.4,0,2.8,0.2,4.2,0.7V39c-1.4-0.6-2.9-0.9-4.4-0.9c-1.6,0-2.9,0.4-3.8,1.2c-0.9,0.8-1.4,1.8-1.4,3.1c0,1.2,0.3,2.2,1,2.9
              c0.6,0.7,2,1.7,4.2,2.9c2.2,1.3,3.7,2.4,4.4,3.3c0.7,1,1.1,2.1,1.1,3.4c0,1.8-0.6,3.3-1.9,4.4c-1.3,1.1-3,1.7-5.3,1.7
              c-0.8,0-1.8-0.1-2.8-0.4C308.6,60.4,307.8,60.1,307.3,59.8z"></path>
        <path class="st1" d="M324.8,60.6V36.9h11.1v1.5h-9.4v9.5h8.7v1.5h-8.7v9.7h10v1.5H324.8z"></path>
        <path class="st1" d="M353.8,60.6l-3.2-6.9c-0.6-1.4-1.3-2.4-1.9-2.9c-0.6-0.5-1.5-0.7-2.4-0.7h-2.9v10.5h-1.6V36.9h6.6
              c2.1,0,3.7,0.6,4.9,1.7c1.2,1.1,1.8,2.6,1.8,4.5c0,1.7-0.5,3.1-1.5,4.3c-1,1.1-2.3,1.9-4.1,2.2v0.1c0.9,0.4,1.8,1.5,2.7,3.4
              l3.5,7.5H353.8z M343.3,38.5v10.1h4.1c1.8,0,3.2-0.5,4.3-1.4c1.1-0.9,1.6-2.2,1.6-3.9c0-1.5-0.5-2.7-1.4-3.5
              c-1-0.9-2.3-1.3-4.1-1.3H343.3z"></path>
    </g>
</svg>